<svg id="Layer_1" data-name="Layer 1" xmlns="http://www.w3.org/2000/svg" viewBox="0 0 608.56 15.66"><defs><style>.cls-1{fill:#fff;}</style></defs><title>border-schmear</title><path class="cls-1" d="M618,15.44c3-.31-.92-.77-4.25-1.17l-3,1.23Z" transform="translate(-10.52 -7.72)"/><path class="cls-1" d="M601.68,15.08l-8.22,1.27,5.94-.62c6.59.65-.88,1.35-3.37,1.59C606.83,17,600,15.81,601.68,15.08Z" transform="translate(-10.52 -7.72)"/><path class="cls-1" d="M585.51,16.07c-5.27-.1-3.8.74-1.58,1C584.27,16.72,587.72,16.34,585.51,16.07Z" transform="translate(-10.52 -7.72)"/><path class="cls-1" d="M258.25,12.06c1.48.18,3.22.3,3,.53C262.88,12.35,263.22,12.15,258.25,12.06Z" transform="translate(-10.52 -7.72)"/><path class="cls-1" d="M261.22,12.59l-1.07.14c.33,0,.61,0,1-.06C261.25,12.64,261.19,12.62,261.22,12.59Z" transform="translate(-10.52 -7.72)"/><path class="cls-1" d="M367.41,22.82c5.93-.62,9.26-.22,14.87-.48l3.13,1c6.08-.34,2.68-.87,7.1-1.41,5.54.66,17.23.06,19.86.11,1.82.48-2.27.66-3.16.95,7.12-.34,6.62-1.33,15.47-1.34l.15.28c21.15-1.45,47.95-1,71.46-2-1.59-.06-1.19-.27-1.81-.48,24.83-.35,53.47-.39,73.1-2.82-13.42.26-36.14-1.39-49.82.43-5.06-.74-12.86.32-15-.72-19.51-.47-27.44,1.37-46.21,1.39-2.69-.19-1.38-.7-2.16-1.19l14.87-.48-9.06-.42c3.92-.46,13.48-.12,14.57-1-13,1.1-33.76.22-45.1,1.52,5.33.24,12,0,18.29.06,2.77.33,7.07.58,6.79,1.08-18,1.43-33,.71-51.53,1.15-4.64.11-10.95,0-11.71-.46,3-.17.75-.58,3.25-.81-6.57.41-.66,1.78-10.16,1.58l1.22-1.71c-3.78,1.81-11.62-.33-18.38.73-2.43-.69,2.05-1.08,7.25-1.13-5.9-.3-6.44.69-11.15.66L368,15.87c-5,1.39-9-.28-11.83-.75-.34.36,2.3,1.47-4,1.38-2.7-.19-1.32-.56-2-.76-.35.36-2.61,1-6.77,1.05-.76-.49,2.76-.73,3-1.23a45.43,45.43,0,0,1-8-.29c-5.54.4.36.7-3,1.23-8.51-.36-.85-1.69-4-2.73,6.41-.69,14.66-.9,18.09-1.29l-12.3.39c.75-.57-8.31-1-1.82-1.54-12.25-.54-27.06.09-38.81.54,1.66.2,3.81.32,3.46.68-6.08.33-5.4-.38-6.65-.8-4.5.39-4,1.38-6.76,2.11-9.28-.84-10.59-.33-18.49-1.54l.49,1c-5.6-.8-6.42.69-12.45.11-.33-.21,2-.46,3.83-.69-5.35.32-4.93-.84-10.14-.46l4.14-1.1c-4.15,0-10.25.37-8.1-.57-7.26,1.13-20,.67-29,1.31l.6-.86c-4.68,1-17.23-.07-21.29,1.17l-.69-.35L186.29,13c-4.22-.1-2.79-1.39-3.13-1-9.27.22-16.54.28-22.5-.16-1.5,1.15-11.25,1.44-19,1.58-37.37-.74-77.5.31-112.27,1.6-5.2,0-12.37,1.31-18.87,1.86,8,.29,8.71-.29,16.54-.28,5.88.3,8,1.49,13.1,2.23l-2.57-1c7.95-.78,5.47.52,11.75-.46l-.26,1.56c2.21-.8,7.76-.14,10,.27l2.06-1.08c5,.6,8.26.85,9.78,1.83l-.49-1c1.88.62,19.24-.09,13.3,1.59a22.23,22.23,0,0,1,6-.62l.48,1c4.58-.25,9.7-.44,11,.12a9.26,9.26,0,0,0-4.14,1.1c19.38.19,4.1-3.22,21.27-3.3l-.2.64,4.36-.68,4.57.81c6.19-2.18,24.09.22,34.46-.93,4.08-.18,9.44,1.12,17.18,1l-.5-1c6.25,1,29.51,1.66,35.34,4,5.87-.76-.62-.21-.49-1,11.46-1,12.26.53,18.27,1.12,7.06-.49-5.4-.38-1.6-1.12,10.81.76,8.78-1.21,22.14-.54,1.33.56-3.45.38-4.83.75,9.4-1,26.91-.37,40.89-.56,16,.71,39.6,1,58.3,1.91l.35-.36c7.77.93,16.19.07,25.27.49Z" transform="translate(-10.52 -7.72)"/><path class="cls-1" d="M479,13.58l-1.49-.84-8.57.57C472.39,14,474.19,13.41,479,13.58Z" transform="translate(-10.52 -7.72)"/><polygon class="cls-1" points="466.61 8.43 471.1 8.03 463.84 8.09 466.61 8.43"/><polygon class="cls-1" points="358.01 7.01 359.12 7.14 375.45 6.44 358.01 7.01"/><path class="cls-1" d="M258.85,11.21c1.87-.44,4.55-.25,6.5-.55l-7.6.42Z" transform="translate(-10.52 -7.72)"/><path class="cls-1" d="M185.18,7.72c-2.89,1.51-5.75,0-1.91,1.36C187.82,8.83,183.87,8.23,185.18,7.72Z" transform="translate(-10.52 -7.72)"/><path class="cls-1" d="M168.05,9.92a27.77,27.77,0,0,0,5.52-.4C170.11,8.84,170,9.62,168.05,9.92Z" transform="translate(-10.52 -7.72)"/></svg>